<?xml version="1.0" encoding="UTF-8" standalone="no"?>
<!DOCTYPE svg PUBLIC "-//W3C//DTD SVG 1.1//EN" "http://www.w3.org/Graphics/SVG/1.1/DTD/svg11.dtd">
<svg width="100%" height="100%" viewBox="0 0 3000 3000" version="1.1" xmlns="http://www.w3.org/2000/svg" xmlnsXlink="http://www.w3.org/1999/xlink" xmlSpace="preserve" xmlnsSerif="http://www.serif.com/" style="fill-rule:evenodd;clip-rule:evenodd;stroke-linejoin:round;stroke-miterlimit:2;">
    <g transform="matrix(0.96822,0,0,0.96822,1515.14,1489.18)">
        <g id="converted-15.svg" serifId="converted 15.svg" transform="matrix(1,0,0,1,-1500,-1500)">
            <g transform="matrix(0.1,0,0,-0.1,0,3000)">
                <path d="M7438,24920C7429,24914 7268,24647 7081,24326L6739,23743L6492,23736C6356,23733 6055,23727 5822,23724C5407,23717 5399,23717 5379,23696C5367,23684 5293,23555 5213,23410C4722,22516 4739,22547 4742,22509C4746,22457 5375,21372 5410,21357C5426,21350 5671,21342 6073,21335C6601,21325 6713,21321 6724,21309C6731,21301 6884,21046 7064,20742L7391,20189L7068,19657L6744,19125L6067,19120C5636,19117 5388,19111 5382,19105C5376,19100 5238,18848 5075,18545C4911,18243 4773,17989 4767,17983C4760,17973 4616,17970 4110,17970C3508,17970 3461,17969 3441,17953C3421,17936 3369,17845 2950,17103C2838,16905 2779,16810 2765,16806C2754,16803 2554,16800 2320,16799C2086,16798 1801,16794 1685,16791L1475,16785L1415,16688C1133,16231 780,15639 780,15622C780,15600 1440,14488 1475,14451L1498,14428L2142,14429L2787,14431L3115,13861C3379,13403 3449,13289 3471,13280C3491,13271 3670,13271 4152,13279C4511,13284 4813,13292 4823,13295C4832,13299 4872,13359 4911,13429C5342,14190 5454,14387 5464,14396C5472,14405 5652,14409 6103,14413L6731,14417L6770,14351C6791,14315 6937,14062 7095,13790C7253,13518 7389,13287 7397,13278C7412,13261 7454,13260 7994,13259C8314,13258 8606,13255 8644,13251L8712,13245L8902,12920C9007,12741 9144,12508 9206,12401C9269,12295 9320,12202 9320,12195C9320,12188 9294,12133 9263,12073C9231,12013 9102,11767 8975,11527L8745,11090L8064,11090C7690,11091 7377,11088 7369,11085C7361,11082 7203,10830 7018,10525C6763,10106 6680,9962 6680,9938C6680,9919 6702,9867 6739,9801C6771,9743 6913,9484 7055,9225C7197,8967 7322,8745 7333,8733L7353,8710L7789,8711C8029,8712 8339,8716 8479,8719L8733,8725L9049,9273L9365,9820L9640,9820C9791,9820 10087,9817 10297,9813L10680,9807L10992,9271C11163,8976 11308,8728 11313,8720C11320,8709 11240,8567 11000,8160C10823,7861 10676,7602 10673,7586C10670,7560 10705,7491 10882,7170C11000,6958 11145,6696 11205,6586C11270,6469 11323,6384 11335,6378C11346,6373 11656,6366 12023,6362L12692,6355L12769,6215C12811,6138 12949,5888 13074,5660C13199,5432 13313,5235 13326,5223L13351,5200L13998,5200C14354,5200 14651,5204 14658,5209C14666,5213 14817,5475 14995,5791L15318,6365L15532,6367C15649,6369 15943,6366 16185,6362C16427,6358 16634,6357 16645,6361C16658,6365 16784,6568 17004,6938C17191,7252 17348,7511 17354,7513C17360,7515 17644,7509 17985,7499C18445,7487 18611,7486 18629,7494C18658,7507 18651,7496 19030,8151L19322,8658L19874,8665C20177,8669 20447,8670 20473,8668L20522,8665L20847,8105C21025,7797 21180,7536 21190,7526C21208,7508 21237,7507 21849,7501C22255,7497 22492,7491 22498,7485C22504,7480 22644,7234 22810,6940C22976,6646 23120,6397 23129,6387C23153,6362 23148,6363 23891,6349C24296,6342 24533,6341 24544,6347C24553,6352 24709,6615 24889,6931L25217,7505L25848,7501C26196,7499 26491,7500 26504,7504C26532,7511 26535,7516 26950,8190C27161,8532 27243,8673 27243,8695C27243,8716 27146,8896 26910,9310C26727,9632 26571,9902 26563,9910C26551,9923 26467,9925 25896,9921L25243,9918L24921,10454C24744,10749 24599,10995 24597,11000C24596,11005 24737,11259 24910,11564C25204,12083 25227,12120 25255,12124C25272,12127 25557,12132 25890,12136C26223,12139 26502,12146 26510,12150C26518,12155 26674,12411 26855,12720L27185,13282L27830,13275C28351,13270 28478,13272 28492,13282C28517,13302 29162,14422 29162,14447C29163,14482 28526,15633 28498,15647C28482,15655 28306,15660 27916,15665C27608,15669 27322,15675 27281,15679L27205,15685L26551,16773L26569,16804C26733,17076 27210,17901 27210,17913C27210,17922 27197,17950 27181,17977C27157,18017 26871,18519 26596,19004C26561,19066 26527,19115 26515,19119C26504,19123 26203,19120 25846,19113C25489,19105 25194,19103 25190,19107C25183,19114 24623,20136 24586,20208L24569,20240L24895,20803C25074,21113 25220,21377 25220,21390C25220,21403 25189,21468 25151,21534C25113,21601 24967,21860 24825,22110C24684,22360 24561,22571 24552,22578C24538,22589 24412,22591 23877,22588L23218,22585L22921,23135C22757,23438 22611,23697 22597,23713L22571,23740L21897,23740C21269,23740 21221,23739 21202,23723C21191,23713 21086,23536 20969,23330C20852,23124 20709,22872 20651,22770L20545,22586L20275,22588C20127,22589 19844,22593 19648,22596L19291,22603L19069,22999C18947,23217 18806,23467 18756,23555L18665,23715L17308,23715L17094,24120C16976,24343 16843,24595 16798,24680C16754,24765 16711,24843 16702,24853C16688,24869 16640,24870 15970,24870C15300,24870 15252,24869 15238,24853C15230,24843 15146,24696 15052,24525C14959,24355 14824,24109 14752,23980L14623,23745L13982,23745C13354,23745 13340,23745 13321,23725C13310,23714 13159,23462 12985,23165C12810,22868 12662,22618 12654,22611C12643,22599 12541,22594 12063,22583C11745,22576 11463,22571 11437,22572L11389,22575L11075,23135C10903,23443 10752,23705 10741,23718L10722,23740L9424,23740L9369,23838C9338,23891 9197,24140 9055,24390C8913,24640 8790,24852 8781,24861C8767,24875 8679,24881 8125,24904C7403,24934 7460,24933 7438,24920ZM8215,24796L8715,24775L8806,24615C8856,24527 8992,24288 9108,24083C9225,23878 9320,23705 9320,23698C9320,23691 9258,23575 9182,23440C9106,23305 8973,23069 8886,22915C8799,22761 8723,22629 8716,22622C8707,22613 8581,22606 8220,22595C7953,22587 7676,22578 7604,22575L7472,22570L7162,23107C6992,23403 6848,23655 6841,23667C6831,23688 6860,23742 7141,24222C7313,24515 7463,24771 7476,24791L7499,24828L7607,24823C7666,24820 7940,24808 8215,24796ZM16663,24708C16702,24638 17057,23965 17158,23770L17223,23645L16995,23245C16870,23025 16734,22785 16692,22711L16616,22577L16251,22584C16050,22587 15765,22593 15618,22596L15351,22603L15191,22874C15104,23023 14962,23264 14876,23409C14790,23554 14720,23680 14720,23688C14720,23701 15239,24655 15297,24748L15310,24770L16629,24770L16663,24708ZM6738,23628C6746,23617 7027,23132 7299,22658L7372,22532L7154,22163C7035,21961 6889,21714 6831,21615L6724,21435L6195,21439C5903,21441 5618,21445 5561,21449L5456,21455L5153,21979C4986,22267 4850,22509 4850,22516C4850,22528 5431,23594 5445,23608C5449,23612 5713,23620 6033,23626C6353,23632 6640,23637 6671,23638C6706,23639 6731,23635 6738,23628ZM10672,23628C10680,23621 10808,23399 10955,23135C11291,22536 11289,22538 11290,22521C11290,22502 10689,21449 10676,21445C10670,21443 10391,21434 10056,21425C9472,21410 9445,21410 9429,21427C9420,21437 9274,21693 9105,21995L8798,22545L8826,22595C8854,22646 8973,22857 9254,23352L9411,23630L9723,23633C10613,23640 10656,23640 10672,23628ZM14931,23108C15104,22816 15246,22568 15248,22558C15251,22542 14655,21465 14625,21432C14614,21420 14511,21420 13994,21430C13643,21437 13370,21447 13363,21452C13357,21457 13312,21532 13264,21618C13017,22063 12758,22534 12754,22544C12751,22551 12837,22707 12945,22891C13053,23075 13196,23318 13263,23433L13385,23640L14618,23640L14931,23108ZM22832,23076C23015,22739 23128,22520 23125,22511C23121,22502 22985,22257 22822,21966L22526,21438L21891,21445C21541,21449 21252,21455 21249,21459C21232,21475 20640,22511 20640,22524C20640,22531 20780,22783 20951,23084L21262,23630L21898,23628L22533,23625L22832,23076ZM18891,23100C19050,22817 19183,22576 19186,22564C19190,22549 19153,22475 19062,22314C18991,22188 18854,21943 18756,21769L18580,21453L17962,21448C17623,21445 17341,21444 17335,21447C17325,21451 16717,22492 16712,22515C16710,22522 16847,22771 17016,23069L17322,23610L17649,23613C17828,23614 18116,23615 18288,23615L18602,23615L18891,23100ZM8702,22493C8722,22469 9333,21378 9333,21365C9333,21360 9190,21117 9016,20827C8799,20467 8691,20296 8677,20291C8651,20282 7494,20246 7481,20255C7470,20261 7464,20272 7095,20895C6942,21153 6817,21369 6817,21375C6817,21384 6876,21486 7298,22200C7377,22335 7447,22450 7454,22457C7462,22465 7620,22473 8010,22485C8546,22500 8669,22504 8681,22508C8684,22509 8694,22502 8702,22493ZM16082,22484C16542,22478 16601,22476 16613,22461C16646,22423 17231,21404 17228,21389C17226,21380 17079,21130 16901,20833L16578,20293L16241,20287C16056,20283 15780,20280 15628,20280C15351,20280 15350,20280 15336,20303C15277,20398 14720,21363 14720,21371C14720,21380 15272,22369 15333,22468L15353,22502L15459,22496C15517,22493 15798,22487 16082,22484ZM20266,22484L20537,22478L20844,21946C21012,21653 21150,21408 21150,21402C21150,21395 21110,21319 21061,21232C20728,20642 20546,20323 20538,20313C20530,20303 20393,20300 19914,20300L19301,20300L19282,20328C19248,20377 18678,21362 18673,21380C18669,21395 18773,21586 19198,22340C19233,22403 19268,22465 19276,22477L19289,22498L19642,22494C19836,22492 20117,22487 20266,22484ZM12958,21955C13120,21664 13254,21417 13257,21408C13260,21398 13144,21175 12965,20846L12668,20302L12567,20295C12511,20292 12225,20290 11932,20292L11399,20295L11114,20795C10958,21070 10818,21318 10804,21345L10777,21395L10917,21640C10994,21775 11130,22015 11221,22173C11337,22378 11390,22462 11405,22465C11434,22471 12238,22487 12469,22486L12664,22485L12958,21955ZM24492,22485L25112,21389L24794,20840L24476,20290L24038,20288C23797,20286 23521,20285 23424,20285L23247,20285L23125,20495C23058,20611 22919,20850 22816,21028C22712,21205 22626,21359 22623,21369C22620,21381 22658,21460 22727,21582C22787,21688 22924,21931 23031,22122L23225,22469L23315,22472C23365,22474 23560,22477 23749,22478C23939,22480 24096,22483 24099,22485C24102,22488 24191,22489 24298,22488L24492,22485ZM18878,20810C19050,20516 19193,20270 19196,20264C19200,20256 18807,19545 18594,19173L18569,19130L17273,19130L16971,19674C16806,19973 16670,20224 16670,20231C16671,20239 16818,20490 16998,20790L17325,21335L17625,21340C17790,21343 18069,21345 18245,21345L18565,21345L18878,20810ZM22516,21326C22544,21299 23151,20238 23147,20225C23142,20212 22522,19150 22514,19141C22512,19139 22230,19129 21888,19119C21415,19106 21262,19105 21254,19113C21242,19126 20635,20196 20625,20222C20620,20235 20941,20817 21212,21282L21251,21349L21878,21343C22323,21339 22508,21334 22516,21326ZM10704,21303C10717,21282 10835,21076 10966,20845C11097,20614 11228,20382 11258,20330C11288,20278 11313,20230 11313,20224C11313,20218 11173,19967 11001,19667L10689,19120L9452,19120L9121,19675C8939,19981 8790,20235 8790,20239C8790,20250 9407,21279 9424,21297C9433,21306 10053,21329 10597,21338L10680,21340L10704,21303ZM14090,21326L14625,21315L14942,20770C15117,20470 15260,20223 15260,20220C15260,20217 15118,19970 14946,19670L14633,19125L14029,19129C13697,19131 13416,19136 13404,19140C13391,19145 13273,19336 13067,19684C12893,19979 12750,20222 12750,20226C12750,20229 12886,20481 13052,20786L13355,21340L13455,21339C13510,21338 13796,21333 14090,21326ZM20512,20188C20528,20175 21160,19067 21160,19052C21159,19048 21023,18804 20857,18510L20554,17975L19934,17969C19594,17966 19311,17965 19305,17967C19290,17973 18665,19068 18668,19082C18676,19116 19287,20190 19300,20193C19308,20196 19581,20198 19906,20199C20364,20200 20500,20197 20512,20188ZM12969,19642C13147,19341 13293,19091 13293,19085C13293,19080 13179,18877 13040,18635C12901,18393 12760,18147 12726,18088L12665,17980L11443,17980L11348,18138C11296,18224 11149,18467 11022,18677C10894,18888 10790,19065 10790,19072C10790,19079 10931,19331 11103,19632L11415,20179L11470,20183C11500,20185 11777,20187 12085,20188L12645,20190L12969,19642ZM16584,20153C16624,20089 17180,19081 17180,19071C17180,19060 16596,18014 16578,17993C16570,17983 16438,17980 15965,17980L15362,17980L15046,18509C14873,18799 14728,19043 14725,19051C14721,19062 15333,20146 15357,20170C15359,20173 15601,20177 15893,20180C16186,20183 16455,20186 16492,20188L16560,20190L16584,20153ZM24478,20178C24499,20152 25090,19066 25090,19053C25090,19039 24495,18003 24476,17984C24462,17970 23266,17990 23251,18005C23246,18011 23100,18257 22926,18553C22617,19079 22610,19091 22624,19118C22632,19133 22725,19294 22832,19475C22938,19657 23075,19889 23135,19992L23245,20180L23580,20182C23764,20184 24039,20186 24191,20188C24405,20190 24469,20188 24478,20178ZM8697,20180L9349,19088L9328,19047C9285,18962 8748,17985 8738,17972C8730,17963 8592,17960 8086,17962L7445,17965L7143,18514C6976,18815 6840,19066 6840,19071C6840,19079 7061,19447 7378,19965L7488,20145L7572,20148C8030,20164 8459,20177 8566,20179L8697,20180ZM14177,19023L14619,19017L14941,18481C15118,18186 15263,17940 15263,17934C15263,17927 15129,17674 14964,17371L14665,16820L13374,16820L13064,17356C12894,17651 12754,17898 12752,17904C12750,17913 13308,18901 13376,19008C13390,19029 13395,19030 13563,19030C13657,19030 13934,19027 14177,19023ZM18576,19007C18582,19000 18727,18751 18898,18453L19210,17911L19121,17758C19020,17583 18897,17383 18735,17130C18674,17034 18607,16928 18586,16894L18549,16833L18137,16827C17910,16823 17636,16820 17528,16820L17331,16820L17157,17113C17061,17273 16912,17524 16826,17669L16670,17933L16818,18199C16900,18345 17038,18593 17126,18749L17285,19033L17925,19026C18399,19021 18568,19016 18576,19007ZM22843,18487L23161,17945L23146,17915C23138,17899 22994,17649 22827,17360L22523,16835L21895,16827C21380,16820 21265,16821 21255,16832C21245,16843 20685,17820 20651,17888C20640,17909 20668,17962 20946,18455L21254,19000L21319,19001C21355,19002 21565,19008 21785,19014C22005,19021 22262,19027 22355,19028L22525,19030L22843,18487ZM6703,19012L6752,19005L7051,18461C7216,18162 7350,17912 7348,17905C7346,17899 7204,17650 7032,17353L6719,16812L6112,16817C5679,16821 5502,16826 5494,16834C5468,16859 4865,17896 4865,17915C4865,17926 4997,18179 5158,18478L5452,19020L6053,19019C6384,19019 6677,19015 6703,19012ZM10745,18930C10774,18883 10857,18746 10930,18625C11003,18504 11123,18306 11197,18186C11270,18065 11330,17959 11330,17951C11330,17942 11188,17685 11016,17380L10701,16825L10608,16819C10557,16815 10276,16812 9983,16811L9452,16810L9367,16958C9320,17039 9243,17173 9195,17255C8913,17741 8830,17888 8830,17901C8830,17909 8898,18039 8981,18190C9063,18341 9200,18590 9283,18742L9435,19020L10064,19017L10693,19015L10745,18930ZM26567,18843C26622,18745 26763,18498 26879,18293C26995,18089 27090,17917 27090,17911C27090,17905 27036,17809 26971,17698C26906,17586 26765,17347 26658,17165L26465,16835L25226,16835L25164,16935C24911,17345 24570,17910 24570,17920C24570,17933 25165,18967 25184,18987C25194,18998 25731,19013 26285,19018L26466,19020L26567,18843ZM24329,17871L24473,17865L24802,17326C24983,17030 25129,16781 25126,16773C25121,16762 24817,16247 24561,15818L24485,15690L23252,15690L22940,16221C22768,16513 22625,16761 22623,16771C22620,16782 22724,16972 22906,17287C23064,17561 23207,17809 23224,17838L23255,17892L23720,17885C23976,17881 24250,17875 24329,17871ZM12768,17660C12997,17263 13203,16906 13243,16836C13277,16776 13280,16764 13271,16743C13243,16682 12686,15684 12676,15678C12670,15674 12388,15670 12049,15670C11475,15670 11432,15671 11418,15688C11387,15723 10789,16752 10792,16764C10800,16799 11415,17870 11429,17873C11438,17876 11715,17877 12044,17876L12644,17875L12768,17660ZM16662,17738C16855,17414 17189,16852 17214,16808L17241,16761L16920,16228C16743,15935 16594,15691 16590,15687C16584,15680 15616,15641 15428,15640L15362,15640L15309,15738C15281,15791 15245,15858 15230,15885C15215,15913 15103,16121 14980,16349C14776,16729 14759,16764 14769,16788C14780,16811 15146,17488 15294,17757C15355,17868 15355,17869 15395,17873C15417,17875 15692,17877 16006,17878L16577,17880L16662,17738ZM4761,17865L5403,16775L5385,16745C5376,16729 5240,16486 5083,16205C4926,15925 4792,15689 4786,15682C4776,15672 4652,15672 4160,15681C3822,15687 3536,15695 3524,15700C3511,15705 3392,15894 3196,16220C3026,16501 2886,16739 2883,16748C2879,16764 2952,16896 3377,17645L3496,17855L3801,17860C3968,17863 4253,17865 4433,17865L4761,17865ZM20830,17358C20991,17076 21131,16831 21141,16814L21160,16783L20846,16234L20533,15685L19907,15682L19281,15680L19262,15707C19252,15723 19156,15886 19050,16070C18944,16254 18810,16485 18754,16583C18697,16681 18650,16769 18650,16779C18650,16789 18698,16874 18757,16966C18973,17309 19134,17569 19217,17712L19302,17860L19598,17863C19762,17864 20040,17866 20216,17868L20537,17870L20830,17358ZM8945,17478C9066,17268 9209,17021 9262,16929L9360,16761L9054,16233C8885,15943 8743,15699 8736,15693C8727,15683 8572,15679 8089,15674L7454,15667L7142,16208C6970,16506 6827,16756 6824,16763C6822,16770 6907,16926 7013,17110C7120,17294 7257,17533 7319,17640C7381,17747 7439,17841 7448,17848C7460,17857 7605,17860 8094,17860L8725,17860L8945,17478ZM18552,16713C18574,16687 19173,15649 19173,15635C19173,15629 19118,15521 19050,15395C18983,15268 18853,15026 18762,14855C18672,14685 18593,14540 18586,14533C18578,14524 18419,14519 17950,14514L17325,14508L17006,15070C16734,15550 16689,15635 16698,15653C16703,15665 16799,15826 16910,16010C17022,16194 17160,16424 17218,16520C17276,16616 17327,16700 17332,16705C17338,16711 17507,16717 17783,16720C18026,16723 18295,16726 18381,16728C18520,16730 18538,16729 18552,16713ZM22836,16190C23045,15834 23149,15648 23147,15634C23143,15609 22533,14540 22515,14525C22504,14516 21303,14544 21274,14554C21260,14559 20626,15601 20626,15620C20626,15634 21190,16632 21232,16692L21251,16720L21628,16723C21835,16724 22121,16725 22263,16725L22522,16725L22836,16190ZM26468,16702C26475,16692 26623,16449 26796,16161L27111,15638L26788,15089C26610,14787 26461,14539 26455,14538C26450,14536 26166,14536 25825,14538L25205,14541L24898,15074C24729,15367 24588,15614 24584,15623C24580,15634 24681,15814 24890,16167C25062,16458 25210,16703 25219,16714C25234,16732 25257,16732 25845,16725C26396,16719 26456,16717 26468,16702ZM14657,16712C14672,16703 15260,15611 15260,15593C15260,15586 15222,15516 15175,15437C15129,15359 14988,15122 14863,14911C14655,14561 14632,14525 14603,14518C14586,14514 14307,14511 13984,14512L13397,14515L13335,14625C13300,14686 13159,14933 13022,15175L12771,15615L12803,15675C12821,15708 12957,15954 13105,16222L13375,16710L13685,16712C14422,16719 14646,16719 14657,16712ZM6744,16688C6751,16675 6887,16440 7045,16165C7203,15890 7339,15654 7347,15640C7361,15616 7350,15595 7052,15070L6743,14525L6339,14518C6117,14514 5830,14511 5702,14513L5469,14515L5175,15060C5013,15360 4880,15610 4880,15616C4880,15622 4938,15730 5008,15856C5078,15982 5214,16226 5310,16397L5485,16710L6730,16710L6744,16688ZM10771,16575C10812,16504 10955,16260 11088,16034C11221,15807 11330,15618 11330,15612C11330,15606 11228,15427 11104,15213C10980,15000 10837,14754 10787,14667L10695,14509L10080,14516C9644,14520 9462,14526 9453,14534C9428,14558 8829,15615 8832,15630C8834,15640 8972,15884 9140,16173L9445,16699L9550,16703C9608,16704 9889,16706 10175,16705L10694,16705L10771,16575ZM3095,16184C3266,15900 3409,15660 3413,15651C3420,15638 3345,15500 3110,15094C2939,14798 2792,14550 2783,14543C2772,14534 2614,14531 2156,14530L1544,14529L1498,14607C893,15616 889,15622 903,15644C910,15656 1001,15805 1105,15975C1208,16146 1348,16375 1415,16485L1537,16685L1821,16690C1977,16693 2258,16696 2445,16698L2785,16700L3095,16184ZM4534,15571L4783,15565L5076,15021C5238,14721 5370,14471 5370,14464C5370,14458 5284,14300 5178,14114C5073,13928 4938,13690 4879,13585L4771,13395L4548,13389C4425,13386 4143,13381 3921,13379L3516,13375L3198,13929L2879,14483L2951,14609C3142,14941 3493,15548 3507,15569L3522,15592L3903,15585C4113,15581 4397,15575 4534,15571ZM24476,15582C24486,15576 24581,15414 24967,14743L25112,14492L24799,13935C24626,13629 24479,13375 24470,13371C24462,13367 24180,13366 23845,13368L23234,13372L23219,13399C23211,13413 23070,13660 22906,13946L22609,14468L22926,15021C23100,15326 23248,15578 23254,15582C23260,15586 23535,15590 23865,15590C24195,15590 24470,15586 24476,15582ZM9045,15025C9334,14521 9362,14468 9351,14447C9344,14435 9199,14187 9027,13895L8715,13365L8093,13362L7471,13360L7452,13387C7442,13403 7297,13650 7131,13937C6855,14413 6830,14461 6841,14482C6854,14506 7106,14953 7322,15333C7438,15537 7454,15560 7478,15561C7493,15562 7737,15566 8020,15569C8303,15573 8578,15577 8631,15578L8728,15580L9045,15025ZM16924,15006C17092,14709 17230,14460 17230,14452C17230,14440 17097,14219 16638,13464L16588,13382L16117,13375C15857,13372 15582,13370 15505,13372L15366,13375L15225,13611C15148,13740 15002,13984 14901,14153L14718,14460L15035,14994L15352,15529L15393,15534C15416,15537 15694,15548 16010,15558C16531,15575 16587,15575 16601,15561C16610,15552 16755,15302 16924,15006ZM20847,15040C21143,14554 21172,14503 21163,14479C21157,14465 21028,14228 20875,13954C20723,13680 20589,13439 20578,13418L20557,13382L20416,13376C20339,13373 20060,13369 19796,13368L19317,13365L18999,13910C18824,14210 18680,14460 18680,14466C18680,14476 19175,15412 19247,15538L19271,15580L19896,15578L20522,15575L20847,15040ZM12777,15393C13178,14687 13300,14471 13300,14463C13300,14452 13280,14417 12912,13785C12778,13554 12663,13360 12657,13353C12648,13344 12507,13345 12040,13357C11707,13366 11432,13375 11428,13379C11405,13399 10790,14455 10794,14466C10797,14474 10920,14688 11068,14943C11216,15197 11359,15442 11385,15488L11433,15570L12676,15570L12777,15393ZM28387,15554L28449,15548L28744,15011C28906,14715 29042,14467 29045,14459C29048,14450 28922,14222 28741,13910L28432,13375L27819,13379C27481,13381 27198,13386 27189,13391C27180,13396 27054,13605 26909,13857C26764,14109 26625,14351 26599,14395C26560,14460 26554,14478 26562,14495C26568,14506 26712,14753 26883,15044L27194,15573L27760,15566C28071,15562 28353,15557 28387,15554ZM22035,14425C22451,14413 22516,14409 22526,14395C22533,14386 22674,14141 22840,13850L23142,13321L22850,12798C22689,12510 22550,12267 22542,12258C22528,12241 22486,12240 21920,12240L21313,12240L20980,12780C20689,13252 20648,13324 20657,13343C20663,13355 20798,13599 20957,13885C21116,14171 21252,14415 21259,14428C21271,14450 21273,14451 21413,14445C21491,14441 21771,14433 22035,14425ZM26247,14430L26459,14430L26491,14373C26509,14341 26649,14097 26803,13831C26956,13565 27084,13342 27086,13336C27091,13322 26466,12259 26447,12249C26441,12245 26163,12239 25830,12235L25224,12228L24900,12766C24722,13061 24577,13308 24577,13314C24577,13328 25176,14397 25199,14424C25214,14442 25231,14443 25625,14436C25851,14433 26130,14430 26247,14430ZM10696,14396C10710,14382 11330,13335 11330,13325C11330,13322 11217,13131 11079,12902C10940,12673 10791,12425 10746,12351L10665,12217L10480,12223C10378,12227 10099,12235 9860,12241C9568,12249 9421,12256 9413,12264C9403,12274 8848,13217 8815,13280C8803,13304 8816,13330 9113,13836C9285,14127 9433,14378 9443,14393L9461,14421L10073,14414C10506,14409 10688,14404 10696,14396ZM18902,13867L19222,13320L18979,12907C18846,12681 18701,12434 18656,12360L18575,12225L18280,12228C18118,12229 17840,12233 17662,12236L17340,12242L17019,12777C16842,13072 16696,13320 16693,13329C16691,13339 16724,13403 16768,13475C16812,13547 16952,13778 17080,13990C17208,14202 17319,14382 17327,14390C17338,14402 17416,14406 17838,14411C18111,14414 18391,14416 18458,14416L18582,14415L18902,13867ZM14940,13884C15113,13595 15259,13347 15264,13335C15272,13314 15230,13238 14940,12754L14606,12198L13995,12205C13558,12210 13382,12215 13374,12224C13357,12241 12750,13277 12750,13288C12750,13296 13339,14315 13386,14388L13400,14410L14625,14410L14940,13884ZM16602,13263C16610,13253 16759,13007 16933,12717C17214,12247 17248,12186 17238,12167C17217,12126 16638,11135 16614,11097L16590,11060L15963,11062L15336,11065L15260,11195C15217,11267 15074,11510 14941,11736L14700,12148L15031,12701C15213,13006 15364,13257 15367,13260C15369,13263 15600,13267 15878,13270C16157,13273 16430,13277 16486,13278C16571,13280 16589,13277 16602,13263ZM12065,13254C12384,13246 12648,13235 12652,13232C12656,13228 12798,12989 12968,12700L13278,12175L13263,12145C13254,12129 13113,11881 12949,11594L12650,11073L12317,11066C11843,11057 11412,11054 11407,11060C11381,11089 10770,12166 10772,12178C10774,12188 10921,12437 11099,12733C11415,13256 11424,13270 11454,13270C11471,13270 11746,13263 12065,13254ZM20879,12745C21103,12380 21200,12214 21195,12203C21192,12193 21040,11934 20857,11628L20525,11070L19915,11072L19305,11075L18988,11620C18813,11920 18670,12167 18670,12170C18670,12173 18813,12418 18988,12715L19306,13255L19595,13260C19755,13263 20036,13266 20220,13268L20555,13270L20879,12745ZM24482,13251C24495,13239 25130,12181 25130,12172C25130,12167 24989,11916 24817,11614L24504,11065L23880,11059C23536,11056 23251,11055 23245,11057C23240,11059 23171,11178 23093,11323C23015,11467 22883,11711 22799,11865C22716,12019 22643,12155 22638,12166C22629,12184 22672,12266 22910,12691C23065,12968 23202,13211 23215,13231L23239,13268L23857,13263C24197,13260 24478,13255 24482,13251ZM10124,12132L10673,12115L10720,12035C10863,11791 11293,11044 11302,11025C11311,11006 11272,10933 11004,10464C10835,10168 10694,9922 10691,9918C10687,9914 10393,9914 10036,9919C9514,9926 9385,9931 9375,9942C9352,9967 8839,11023 8842,11040C8844,11049 8975,11302 9133,11603L9422,12150L9498,12149C9541,12149 9822,12141 10124,12132ZM18171,12124L18577,12118L18899,11564C19076,11259 19220,11006 19218,11002C19216,10997 19073,10745 18901,10442L18586,9890L17981,9896C17647,9899 17366,9903 17355,9905C17341,9908 17242,10065 17013,10449C16835,10746 16690,10996 16690,11003C16690,11016 17318,12098 17342,12127C17349,12136 17405,12138 17558,12134C17672,12132 17948,12127 18171,12124ZM22836,11576C23003,11268 23140,11010 23140,11003C23140,10990 22557,9937 22528,9897C22516,9880 22482,9880 21900,9895C21562,9903 21276,9912 21265,9915C21251,9919 21157,10077 20940,10466C20772,10766 20634,11018 20632,11025C20629,11038 21246,12085 21278,12123C21292,12139 21332,12140 21913,12138L22533,12135L22836,11576ZM14570,12091L14614,12085L14928,11552L15241,11019L15146,10837C15094,10737 14962,10486 14853,10280L14655,9905L13388,9905L13073,10450C12899,10750 12755,11003 12753,11013C12749,11025 12858,11224 13056,11571L13365,12111L13945,12104C14264,12100 14545,12094 14570,12091ZM9008,10436L9281,9886L9134,9631C8929,9274 8681,8847 8672,8834C8667,8826 8481,8821 8035,8815L7405,8808L7097,9369C6927,9677 6790,9936 6792,9944C6794,9951 6937,10190 7110,10474L7424,10990L8080,10988L8735,10985L9008,10436ZM12735,10825C12982,10402 13290,9862 13290,9854C13290,9849 13156,9600 12992,9300L12695,8755L11415,8755L11359,8850C11207,9107 10785,9836 10782,9846C10780,9853 10919,10104 11091,10404L11402,10949L11564,10952C11652,10954 11893,10957 12099,10958C12305,10959 12476,10963 12479,10966C12482,10968 12522,10969 12569,10968L12654,10965L12735,10825ZM20849,10414C21021,10108 21160,9851 21158,9844C21156,9836 21013,9594 20840,9306L20525,8782L20395,8776C20324,8773 20054,8769 19796,8768L19327,8765L19287,8830C19265,8866 19124,9098 18975,9345C18825,9593 18697,9805 18690,9816C18678,9835 18706,9888 19000,10404L19322,10970L20538,10970L20849,10414ZM16585,10960L17251,9846L16647,8760L16315,8760C16133,8760 15855,8763 15697,8767L15411,8773L15085,9297C14905,9585 14756,9829 14753,9839C14750,9849 14807,9968 14890,10126C14969,10274 15095,10514 15172,10660C15249,10806 15317,10933 15322,10943C15330,10959 15371,10960 15958,10960L16585,10960ZM24502,10943C24510,10933 24660,10687 24834,10397L25150,9868L24819,9324C24549,8880 24484,8780 24467,8780C24455,8779 24177,8773 23850,8766C23523,8758 23252,8754 23248,8756C23245,8758 23181,8865 23107,8992C22803,9518 22642,9796 22631,9817C22621,9837 22637,9872 22794,10152C22890,10324 23029,10573 23102,10705L23236,10945L23700,10950C23956,10953 24237,10956 24326,10958C24469,10960 24489,10958 24502,10943ZM26814,9265C26988,8959 27130,8704 27130,8697C27130,8690 26982,8444 26801,8150L26472,7615L25216,7615L25107,7805C24754,8425 24590,8718 24590,8731C24590,8739 24735,8984 24913,9275C25170,9697 25240,9806 25260,9811C25274,9815 25558,9818 25891,9819L26498,9820L26814,9265ZM22020,9789C22298,9783 22528,9775 22532,9771C22536,9768 22676,9527 22845,9236L23151,8708L23123,8661C23018,8481 22505,7622 22496,7611C22487,7599 22393,7598 21875,7604C21417,7609 21262,7614 21253,7623C21242,7635 20659,8634 20628,8695L20612,8725L20930,9252C21104,9542 21253,9786 21260,9795C21272,9810 21290,9811 21394,9806C21461,9803 21742,9795 22020,9789ZM14500,9793L14655,9787L14980,9267C15159,8980 15306,8740 15308,8733C15310,8726 15157,8473 14968,8170C14730,7789 14619,7618 14605,7616C14594,7613 14317,7609 13989,7606L13392,7601L13086,8145L12779,8690L13385,9800L13865,9800C14129,9800 14415,9797 14500,9793ZM18587,9777C18596,9768 19130,8890 19218,8740C19232,8715 19224,8700 18950,8225C18794,7955 18648,7702 18626,7663L18585,7590L18490,7590C18438,7590 18161,7597 17876,7605C17483,7616 17353,7623 17344,7632C17338,7639 17283,7733 17222,7840C17162,7947 17044,8157 16960,8305C16876,8454 16791,8604 16772,8640L16737,8705L17041,9253L17345,9802L17960,9795C18402,9790 18578,9785 18587,9777ZM24486,8672C24492,8668 24554,8566 24622,8445C24691,8324 24831,8078 24934,7897C25036,7717 25120,7565 25120,7559C25120,7553 24978,7299 24804,6994L24489,6440L24452,6440C24432,6441 24143,6447 23811,6454C23328,6465 23205,6470 23195,6481C23179,6498 22590,7539 22590,7550C22590,7555 22670,7693 22768,7858C22867,8022 23009,8262 23085,8391C23161,8520 23228,8631 23235,8638C23243,8647 23392,8653 23850,8664C24183,8671 24460,8678 24465,8678C24471,8679 24480,8676 24486,8672ZM16415,8654L16645,8648L16945,8118C17110,7826 17246,7582 17248,7574C17250,7567 17129,7354 16979,7103C16829,6851 16682,6603 16652,6552L16597,6459L16081,6466C15797,6469 15511,6475 15445,6479L15325,6485L15022,7020C14845,7332 14721,7562 14723,7572C14729,7592 15390,8652 15402,8661C15412,8667 16062,8663 16415,8654ZM12833,8380C12915,8234 13051,7992 13136,7841C13221,7690 13290,7561 13290,7554C13290,7548 13257,7482 13216,7409C13176,7335 13045,7097 12925,6880C12806,6663 12702,6479 12695,6471C12684,6460 12576,6459 12035,6466L11388,6475L11158,6890C11032,7118 10895,7367 10853,7442L10778,7579L11092,8109C11264,8401 11412,8641 11420,8644C11428,8646 11716,8647 12060,8646L12685,8645L12833,8380ZM14810,7182C14911,7002 15047,6761 15112,6647C15177,6532 15230,6435 15230,6431C15230,6424 15063,6125 14728,5532C14662,5415 14600,5315 14590,5310C14580,5304 14331,5300 13983,5300L13393,5300L13091,5848C12926,6150 12790,6401 12790,6406C12790,6415 13342,7424 13376,7477C13392,7502 13338,7500 14320,7507L14625,7510L14810,7182Z" style="fill-rule:nonzero;"/>
            </g>
        </g>
        <g id="converted-15.svg1" serifId="converted 15.svg">
        </g>
    </g>
</svg>
