<?xml version="1.0" encoding="UTF-8" standalone="no"?>
<!DOCTYPE svg PUBLIC "-//W3C//DTD SVG 1.1//EN" "http://www.w3.org/Graphics/SVG/1.1/DTD/svg11.dtd">
<svg width="100%" height="100%" viewBox="0 0 3000 3000" version="1.1" xmlns="http://www.w3.org/2000/svg" xmlnsXlink="http://www.w3.org/1999/xlink" xmlSpace="preserve" xmlnsSerif="http://www.serif.com/" style="fill-rule:evenodd;clip-rule:evenodd;stroke-linejoin:round;stroke-miterlimit:2;">
    <g transform="matrix(0.921987,0,0,0.921987,1453.92,1466.69)">
        <g id="converted-78.svg" serifId="converted 78.svg" transform="matrix(1,0,0,1,-1500,-1500)">
            <g transform="matrix(0.1,0,0,-0.1,0,3000)">
                <path d="M14910,28686C14891,28673 14610,28501 14285,28305C13442,27794 13377,27753 13360,27728C13347,27708 13344,27467 13340,25769L13335,23833L11621,24812C10210,25617 9901,25790 9871,25790C9844,25790 9795,25767 9665,25692C9475,25582 9301,25481 7355,24352C6602,23915 5578,23321 5080,23032C4582,22744 4108,22468 4025,22420C3943,22372 3691,22226 3465,22095C3240,21964 3047,21852 3037,21846C3028,21840 3013,21820 3004,21802C2989,21771 2990,21701 3013,20931C3040,20027 3037,20060 3096,19993C3112,19975 3390,19800 3730,19594C4063,19392 4472,19144 4640,19042C4808,18941 4997,18826 5060,18787C5123,18748 5375,18595 5620,18447C6576,17867 6504,17913 6478,17897C6465,17889 6077,17671 5615,17412C4417,16743 3717,16351 3396,16172C3160,16040 3112,16009 3084,15972C3066,15948 3048,15914 3046,15896C3037,15838 3021,8198 3030,8177C3034,8165 3048,8146 3061,8134C3074,8123 3407,7934 3800,7716C4193,7497 4535,7305 4560,7288C4652,7225 4491,7143 6314,8185C7215,8700 7953,9120 7955,9118C7956,9116 7961,8796 7964,8405C7990,5785 7999,5184 8011,5158C8017,5143 8039,5120 8059,5106C8079,5093 8516,4845 9030,4555C9544,4264 10519,3714 11195,3332C11872,2950 12684,2491 13000,2312C13316,2134 13625,1960 13685,1925C13940,1780 14878,1252 14907,1236C14956,1211 14999,1216 15061,1253C15091,1271 15438,1486 15833,1730C16334,2039 16559,2184 16577,2207L16603,2241L16616,2758C16633,3431 16655,4282 16681,5325C16693,5787 16704,6167 16706,6169C16708,6171 16792,6123 16892,6063C16993,6002 17282,5827 17535,5675C18558,5057 19029,4773 19510,4482C19914,4237 20022,4176 20050,4176C20078,4176 20181,4229 20540,4431C20790,4572 21351,4888 21785,5132C22220,5377 22917,5770 23335,6005C23753,6240 24291,6543 24530,6678C24769,6813 25390,7162 25910,7455C26430,7747 26865,7993 26878,8001C26928,8033 26930,8048 26915,8390C26907,8563 26890,8986 26875,9330C26861,9674 26846,9971 26840,9990C26835,10010 26816,10039 26798,10056C26780,10073 26497,10240 26170,10427C25843,10615 25267,10944 24890,11160C24513,11376 24026,11654 23808,11779C23589,11903 23411,12007 23411,12010C23411,12014 24088,12399 26245,13618C26608,13823 26917,14004 26932,14020C26951,14041 26960,14063 26964,14102C26966,14131 26987,15866 27010,17956C27055,22050 27055,21797 27004,21841C26993,21850 26819,21956 26615,22075C26412,22195 26055,22405 25823,22541C25452,22760 25395,22790 25348,22796L25295,22802L24375,22252C23869,21950 23070,21473 22600,21192C21839,20738 21745,20684 21741,20703C21739,20715 21743,21150 21749,21670C21782,24538 21783,24718 21771,24749C21764,24765 21742,24790 21722,24803C21701,24817 21460,24960 21185,25120C20573,25478 18711,26567 18355,26775C18128,26908 17418,27324 15546,28418C15081,28690 15055,28704 15001,28707C14955,28709 14939,28706 14910,28686ZM14915,27803C14912,27452 14907,24880 14904,22088C14900,19295 14894,17010 14890,17010C14886,17010 14584,17176 14219,17379L13555,17748L13552,22679L13550,27610L13577,27627C13636,27667 14906,28438 14913,28439C14917,28440 14919,28153 14915,27803ZM15314,28311C15595,28146 16862,27405 17375,27105C18078,26694 18522,26434 19235,26017C19571,25821 20232,25434 20705,25157L21565,24654L21565,24370C21565,23928 21550,22357 21545,22245C21542,22190 21537,21787 21534,21349L21528,20553L20906,20182L20285,19810L20279,20898C20276,21496 20272,22433 20271,22981L20270,23977L20247,24011C20235,24030 20204,24058 20180,24073C20142,24097 19602,24396 18455,25029C18318,25105 17841,25369 17395,25615C16796,25946 16574,26064 16544,26068C16509,26072 16498,26068 16469,26042L16435,26012L16437,25258C16440,24426 16449,23124 16480,18915C16484,18283 16486,17762 16484,17759C16482,17755 16396,17707 16293,17652C15789,17384 15228,17084 15171,17052L15108,17017L15114,21841C15121,27540 15126,28414 15147,28405C15156,28402 15230,28360 15314,28311ZM16975,25607C17135,25519 17384,25381 17530,25300C17676,25220 18282,24884 18878,24555C19732,24083 19958,23954 19948,23945C19921,23920 18598,23110 18585,23110C18569,23110 16682,24106 16664,24124C16656,24132 16651,24369 16646,24963L16641,25790L16663,25779C16675,25773 16816,25695 16975,25607ZM9796,24448C9787,22927 9772,20781 9765,20000C9762,19634 9753,18293 9745,17020C9737,15747 9727,14497 9724,14244L9718,13782L9058,13406C8695,13198 8396,13031 8394,13033C8392,13035 8381,15267 8370,17993C8358,21072 8346,22958 8340,22974C8321,23026 8240,23053 8179,23027C8149,23015 7384,22589 6925,22330C6859,22293 6144,21892 5335,21440C4527,20988 3730,20542 3564,20449C3399,20356 3258,20280 3252,20280C3244,20280 3240,20306 3240,20358C3240,20400 3231,20719 3220,21065C3210,21412 3204,21698 3208,21701C3212,21705 3537,21894 3930,22122C4323,22350 5183,22849 5840,23230C6497,23611 7269,24059 7555,24225C8723,24903 9649,25440 9715,25479C9754,25501 9789,25520 9794,25520C9800,25520 9800,25091 9796,24448ZM11703,24523L13340,23588L13340,22068L13283,22100C13251,22117 12818,22349 12320,22616C11610,22996 11407,23100 11379,23100C11337,23100 11280,23065 11264,23030C11255,23011 11265,22525 11306,20965C11336,19843 11363,18888 11366,18843C11370,18781 11377,18752 11393,18729C11411,18704 11774,18498 13145,17736L14875,16774L14881,16715C14885,16682 14890,16473 14894,16250C14897,16027 14903,15693 14907,15508C14910,15322 14911,15170 14907,15170C14904,15170 14853,15199 14793,15234C14676,15302 13520,15973 13430,16025C13358,16066 12001,16854 11712,17022C11476,17160 11447,17170 11394,17135C11343,17102 11343,17104 11326,16315C11306,15396 11306,15317 11324,15282C11333,15264 11417,15201 11550,15111C11666,15031 11763,14964 11765,14960C11770,14952 11764,14948 10662,14320C10264,14094 9937,13910 9936,13912C9934,13913 9945,15668 9961,17810C9976,19952 9994,22549 10000,23580C10007,24611 10014,25461 10016,25468C10019,25478 10025,25478 10042,25469C10055,25463 10802,25037 11703,24523ZM17045,23679C17254,23569 17517,23430 17630,23370C17743,23310 17953,23199 18098,23122C18243,23046 18362,22979 18363,22975C18365,22966 18421,23001 17442,22398C17022,22139 16677,21930 16674,21933C16667,21939 16655,23880 16661,23880C16664,23880 16836,23790 17045,23679ZM20064,21792L20072,19828L20048,19841C20035,19847 19762,20004 19440,20189C19118,20373 18832,20537 18804,20552C18775,20568 18748,20586 18742,20593C18731,20605 18656,22742 18662,22851L18665,22905L18830,23006C18921,23062 19233,23254 19524,23434C19815,23613 20054,23759 20055,23757C20057,23756 20061,22872 20064,21792ZM12525,22267L13335,21833L13338,20996C13339,20535 13336,20160 13332,20162C13297,20176 11541,21146 11529,21159C11514,21173 11510,21265 11491,21980C11479,22423 11470,22795 11470,22808C11470,22835 11348,22898 12525,22267ZM8136,21364C8130,21358 7947,21246 7730,21115C7513,20984 7108,20740 6830,20572C6552,20404 6288,20245 6244,20218C6139,20156 6125,20139 6125,20084C6125,20051 6131,20035 6150,20016C6164,20002 6612,19750 7145,19455C7679,19160 8125,18912 8138,18904L8160,18890L8160,17151L7858,17334C7593,17494 5734,18623 4950,19100C4799,19192 4452,19402 4180,19567C3306,20098 3339,20077 3353,20087C3359,20093 3709,20290 4130,20525C4551,20760 5253,21153 5690,21398C6127,21643 6791,22014 7165,22223C7539,22432 7910,22640 7990,22685L8135,22767L8141,22071C8146,21554 8145,21372 8136,21364ZM18479,21835C18496,21323 18511,20863 18514,20812C18516,20761 18515,20720 18510,20722C18506,20724 18110,20950 17631,21224C16942,21619 16762,21726 16772,21735C16779,21742 17062,21918 17400,22126C17738,22334 18112,22564 18230,22636C18348,22709 18446,22768 18447,22767C18448,22765 18462,22346 18479,21835ZM26165,22096L26835,21701L26832,21253C26830,21007 26814,19419 26795,17725C26776,16031 26760,14563 26760,14463C26760,14362 26756,14280 26751,14280C26747,14280 26023,14691 25144,15193C22917,16465 19917,18178 18175,19172C17367,19634 16700,20017 16694,20023C16686,20032 16681,20249 16676,20783L16670,21531L16693,21519C16711,21509 18134,20695 20035,19605C20277,19466 20754,19193 21095,18998C21436,18802 21976,18493 22295,18310C22614,18127 23147,17822 23480,17633C23813,17443 24153,17248 24235,17200C24617,16977 25137,16683 25159,16677C25191,16669 25245,16692 25265,16724C25286,16756 25277,16437 25356,19730C25392,21256 25424,22511 25426,22517C25428,22526 25438,22524 25462,22510C25480,22500 25797,22313 26165,22096ZM25210,22408C25210,22357 25203,22052 25195,21730C25187,21408 25158,20227 25130,19105C25103,17983 25079,17041 25078,17012L25075,16960L24445,17321C24099,17519 23814,17683 23813,17684C23812,17685 23797,18224 23780,18881C23746,20214 23755,20105 23676,20144C23642,20161 23635,20161 23602,20148C23582,20140 23374,20010 23140,19860C22906,19710 22605,19517 22470,19430C22335,19344 22101,19194 21949,19097C21797,19000 21669,18920 21663,18920C21647,18920 20418,19626 20418,19636C20417,19641 20624,19768 20876,19919C21128,20070 21506,20295 21715,20420C21924,20545 22331,20788 22620,20960C22909,21132 23294,21362 23475,21470C23657,21579 23929,21741 24080,21831C24231,21921 24544,22108 24775,22247C25006,22386 25198,22499 25203,22499C25207,22500 25210,22458 25210,22408ZM8150,20130C8150,19589 8149,19146 8148,19144C8146,19143 7761,19354 7293,19613C6648,19970 6444,20088 6453,20096C6460,20102 6762,20287 7125,20505C7488,20724 7866,20952 7964,21011C8063,21071 8145,21118 8147,21117C8148,21115 8150,20671 8150,20130ZM12275,20502C12671,20284 13042,20080 13099,20049L13203,19992L13114,19935C13065,19904 12913,19808 12775,19721C11857,19143 11578,18969 11575,18972C11574,18973 11563,19335 11551,19775C11539,20215 11527,20651 11524,20744C11517,20907 11518,20913 11536,20906C11546,20902 11879,20720 12275,20502ZM23541,19858C23546,19850 23577,18544 23573,18537C23570,18533 23440,18443 23283,18339L22999,18149L22442,18468C22136,18643 21885,18791 21883,18796C21882,18801 22071,18926 22303,19075C22948,19487 23304,19715 23420,19791C23515,19853 23537,19865 23541,19858ZM13340,18844L13340,17869L13262,17912C12304,18439 11692,18786 11703,18796C11713,18805 12028,19004 13185,19732C13262,19780 13328,19820 13333,19820C13337,19820 13340,19381 13340,18844ZM18180,18927C19472,18190 24135,15528 25948,14492C26328,14275 26640,14094 26640,14090C26640,14085 26341,13914 25000,13155C24750,13013 24244,12726 23875,12517C23507,12308 23200,12137 23195,12137C23185,12137 21942,12845 21928,12858C21925,12862 22324,13112 22817,13415C23310,13717 23723,13973 23736,13983C23749,13993 23765,14019 23771,14040C23781,14073 23780,14084 23764,14115C23747,14147 23714,14170 23540,14272C23346,14386 21712,15345 21400,15528C21222,15632 19057,16903 18230,17388C17263,17955 16881,18179 16783,18237L16692,18290L16688,19028C16686,19433 16686,19768 16688,19772C16690,19776 16701,19773 16713,19766C16725,19758 17385,19381 18180,18927ZM23590,18042C23593,17917 23595,17814 23594,17812C23591,17808 23239,18010 23222,18025C23212,18034 23249,18063 23392,18158C23492,18225 23577,18277 23580,18274C23583,18271 23587,18166 23590,18042ZM16824,17969L16852,17952L16819,17935C16800,17925 16766,17906 16743,17893L16700,17868L16700,18042L16748,18014C16774,17999 16808,17979 16824,17969ZM17295,17693C17389,17638 17663,17477 17905,17335C18147,17193 18351,17073 18358,17067C18373,17055 18396,17069 18070,16882C17935,16805 17665,16650 17470,16538C15997,15690 15140,15200 15131,15200C15124,15200 15120,15255 15119,15363C15119,15452 15113,15804 15106,16145C15095,16673 15095,16767 15107,16777C15115,16783 15444,16960 15838,17171C16232,17382 16670,17616 16810,17691L17065,17828L17095,17810C17112,17800 17202,17748 17295,17693ZM7380,17378C7914,17054 8039,16974 8028,16964C8021,16958 7851,16851 7650,16727C7449,16604 6997,16325 6645,16108C6293,15891 5740,15550 5415,15351C5077,15143 4809,14972 4788,14950C4766,14927 4749,14899 4746,14879C4741,14849 4669,11098 4670,10906C4670,10828 4670,10827 4709,10789C4775,10723 4781,10725 5120,10918C5282,11011 5771,11289 6205,11537C7165,12085 8459,12823 9135,13208C9410,13365 10047,13728 10550,14015C11053,14302 11571,14597 11700,14670C11829,14743 11942,14809 11950,14816C11963,14826 12056,14766 12532,14442C12844,14229 13099,14052 13100,14048C13100,14041 13087,14033 12320,13592C11388,13056 7621,10891 7075,10577C6778,10407 6420,10201 6280,10120C6059,9992 5234,9518 3656,8611C3425,8479 3235,8371 3234,8373C3231,8377 3252,15816 3255,15835C3258,15849 3312,15884 3432,15951C3527,16004 3738,16121 3900,16212C4288,16429 5335,17015 5925,17345C6184,17490 6463,17647 6545,17693C6628,17740 6700,17779 6707,17779C6714,17780 7016,17599 7380,17378ZM19235,16555C19587,16348 19876,16176 19878,16172C19879,16167 19717,16066 19518,15945C19132,15713 18654,15425 18220,15163C18074,15075 17726,14865 17445,14695C17165,14526 16862,14343 16772,14289C16682,14234 16605,14190 16600,14190C16596,14190 16457,14268 16293,14363C16129,14458 15818,14639 15602,14764C15386,14890 15212,14996 15217,15000C15221,15004 15383,15097 15575,15207C15910,15400 17176,16127 18124,16672C18372,16814 18579,16930 18585,16930C18591,16930 18883,16761 19235,16555ZM12305,16435C12696,16208 13269,15875 13580,15695C14693,15050 14781,14997 14773,14990C14769,14986 14659,14922 14530,14848C14401,14774 14078,14588 13812,14436C13547,14283 13324,14160 13317,14163C13310,14165 13217,14228 13110,14301C13003,14374 12845,14481 12760,14539C12674,14598 12360,14811 12062,15015L11520,15384L11520,15500C11520,15585 11548,16850 11550,16868C11550,16873 11580,16855 12305,16435ZM8165,16578C8168,16461 8170,16145 8168,15876L8165,15387L7580,15009C7110,14706 6438,14273 6291,14178L6265,14161L5665,14514C5336,14708 5065,14871 5063,14876C5062,14881 5482,15145 5998,15463C6513,15780 7207,16209 7540,16414C7873,16620 8148,16789 8151,16789C8155,16790 8161,16694 8165,16578ZM20961,15542C21381,15295 21762,15072 21808,15046L21890,14998L21853,14971C21832,14956 21673,14848 21500,14730C20770,14235 20559,14092 20451,14018C20388,13975 20335,13942 20333,13943C20330,13946 20190,15930 20190,15970C20190,15981 20192,15990 20194,15990C20196,15990 20541,15788 20961,15542ZM19980,15948C19980,15935 20012,15477 20050,14930C20089,14383 20120,13925 20120,13913C20120,13894 20033,13941 19468,14265L18815,14638L18812,14953C18810,15197 18813,15270 18822,15278C18844,15296 19964,15970 19972,15970C19976,15970 19980,15960 19980,15948ZM8177,13307L8175,13039L7820,13248C7625,13363 7245,13586 6975,13744C6706,13902 6482,14035 6478,14038C6474,14042 6852,14291 7318,14591L8165,15137L8172,14356C8176,13926 8179,13454 8177,13307ZM18600,14955C18600,14853 18597,14770 18593,14770C18582,14770 18280,14943 18280,14949C18280,14956 18581,15139 18593,15140C18597,15140 18600,15057 18600,14955ZM22646,14554C22942,14380 23250,14199 23329,14153C23408,14106 23468,14065 23464,14060C23459,14056 23062,13811 22582,13516L21710,12980L21060,13353C20702,13557 20411,13728 20413,13733C20414,13737 20510,13805 20625,13883C20948,14101 21605,14548 21853,14717C21975,14801 22082,14869 22091,14869C22100,14870 22350,14728 22646,14554ZM14955,12871C14975,11797 14990,10917 14988,10916C14986,10914 14753,10782 14470,10622C14187,10463 13867,10282 13760,10222C13653,10161 13564,10115 13562,10119C13553,10146 13413,13956 13421,13965C13431,13975 14914,14829 14917,14826C14918,14825 14935,13946 14955,12871ZM18507,14573C18737,14441 19533,13985 20275,13560C21018,13135 21873,12645 22175,12472C23565,11676 23874,11499 24755,10995C25988,10289 26635,9919 26637,9916C26640,9914 26709,8276 26707,8273C26704,8270 26614,8322 24950,9298C24356,9646 24033,9835 23790,9977C23677,10043 23270,10282 22885,10507C22500,10733 22091,10972 21975,11040C21357,11402 19526,12474 18560,13040C18172,13267 17621,13590 17335,13757C17049,13925 16814,14063 16812,14064C16811,14066 17041,14206 17322,14376C17604,14546 17885,14715 17945,14752C18006,14790 18062,14818 18072,14816C18081,14814 18276,14704 18507,14573ZM15812,14399C16182,14184 16488,14006 16491,14002C16494,13998 16478,13485 16455,12862C16421,11958 16410,11725 16399,11715C16380,11698 15208,11038 15204,11042C15200,11046 15187,11680 15160,13195C15150,13800 15138,14406 15134,14543C15131,14679 15130,14790 15134,14790C15137,14790 15442,14614 15812,14399ZM5565,14330C5868,14153 6118,14004 6123,14000C6127,13997 6137,13587 6145,13089C6164,11890 6165,11761 6154,11751C6136,11735 4888,11028 4885,11032C4883,11034 4896,11846 4915,12835C4934,13825 4950,14648 4950,14663L4950,14692L4983,14672C5000,14661 5263,14507 5565,14330ZM17033,13691C17210,13587 17906,13179 18580,12785C19254,12390 20041,11929 20330,11760C20888,11433 22099,10724 22925,10240C23200,10079 23477,9917 23540,9880C23603,9843 23972,9627 24360,9400C24748,9173 25297,8851 25580,8685C25863,8519 26209,8317 26348,8235L26602,8087L26573,8070C26558,8060 26041,7769 25425,7422C24809,7076 24019,6632 23670,6435C23321,6238 22551,5805 21960,5472C21369,5139 20712,4769 20500,4650C20288,4531 20101,4426 20083,4417L20051,4400L19773,4569C19620,4661 19376,4809 19230,4897C19084,4985 18607,5273 18170,5537C17733,5801 17227,6106 17047,6215C16866,6324 16716,6419 16713,6426C16707,6442 16748,8082 16755,8088C16757,8091 16878,8018 17022,7928C17167,7837 17919,7363 18695,6876C19549,6338 20121,5984 20146,5977C20179,5969 20195,5969 20217,5979C20232,5986 20387,6078 20560,6183C20873,6372 21371,6673 21820,6945C23695,8079 23704,8084 23728,8120C23755,8161 23756,8209 23730,8242C23720,8256 23667,8293 23613,8325C23559,8357 23400,8451 23260,8535C23120,8619 22814,8801 22580,8940C22346,9079 22040,9262 21900,9345C21623,9511 18984,11082 17555,11933C17066,12224 16662,12465 16658,12469C16654,12473 16661,12768 16675,13125C16689,13483 16700,13799 16700,13828C16700,13856 16702,13880 16705,13880C16708,13880 16856,13795 17033,13691ZM7398,13253C7767,13035 8070,12854 8070,12850C8070,12842 6380,11876 6376,11881C6371,11887 6343,13854 6347,13862C6349,13866 6435,13819 6538,13758C6641,13698 7028,13470 7398,13253ZM13233,13124C13248,12724 13259,12396 13258,12395C13254,12391 4700,7506 4674,7492C4655,7482 4577,7522 4011,7838C3659,8034 3371,8197 3370,8200C3370,8203 4051,8596 4883,9074C7613,10644 11020,12602 11650,12965C11862,13087 12222,13294 12450,13425C12678,13556 12937,13705 13025,13756C13113,13807 13190,13849 13195,13849C13202,13850 13215,13597 13233,13124ZM16813,12130C16950,12049 16968,12036 16953,12025C16894,11986 16638,11848 16633,11853C16626,11861 16641,12231 16649,12227C16652,12225 16726,12181 16813,12130ZM13304,11244C13323,10744 13341,10291 13345,10238C13348,10172 13347,10140 13340,10140C13334,10140 13094,10275 12807,10441C12520,10606 12120,10837 11918,10953C11716,11070 11551,11168 11553,11173C11555,11180 13263,12159 13267,12156C13269,12154 13285,11744 13304,11244ZM17457,11747C17599,11662 17873,11499 18065,11385C18258,11271 18421,11172 18428,11165C18439,11155 18359,11107 18023,10918C17793,10788 17052,10371 16375,9990C14415,8886 13462,8350 10100,6457C9338,6028 8603,5615 8467,5538C8330,5461 8215,5401 8212,5405C8206,5411 8172,8296 8171,8935L8170,9246L8901,9663C9303,9893 9633,10080 9635,10078C9636,10076 9655,9579 9677,8972L9717,7869L9747,7832C9767,7808 9790,7792 9815,7785C9849,7777 9859,7779 9914,7810C9993,7853 13421,9788 13520,9845C13561,9869 14032,10134 14565,10436C15099,10737 15711,11082 15925,11203C16140,11324 16509,11533 16745,11666C16982,11800 17180,11907 17187,11905C17194,11903 17315,11832 17457,11747ZM19260,10673C19590,10476 19860,10312 19860,10309C19860,10305 17964,9187 15648,7824C13331,6462 11394,5322 11343,5292C11222,5220 11196,5171 11238,5091C11253,5061 11336,5013 11980,4658C12379,4438 13130,4024 13650,3738C14170,3451 14978,3006 15445,2748C15913,2491 16296,2276 16298,2272C16301,2263 14986,1450 14967,1450C14959,1450 14804,1534 14624,1636C14443,1738 14241,1852 14175,1890C13396,2330 12898,2611 11980,3130C10037,4228 8830,4910 8568,5058C8426,5138 8313,5207 8318,5211C8322,5215 8613,5379 8965,5577C9317,5775 9765,6027 9960,6137C10155,6247 10691,6549 11150,6807C12369,7493 13399,8073 14295,8578C14730,8822 15479,9244 15960,9515C16441,9786 17242,10237 17740,10518C18238,10799 18649,11029 18653,11029C18657,11030 18931,10869 19260,10673ZM11269,9914C11287,9315 11298,8835 11294,8831C11277,8816 9928,8058 9925,8062C9922,8064 9865,9587 9848,10119L9845,10203L10530,10595C10907,10811 11220,10989 11225,10989C11232,10990 11247,10634 11269,9914ZM11801,10778C11947,10694 12333,10472 12658,10285C12983,10098 13249,9942 13250,9939C13250,9936 12900,9736 12473,9495C11463,8925 11520,8957 11514,8962C11510,8967 11450,10768 11450,10913L11450,10981L11493,10956C11516,10943 11655,10863 11801,10778ZM21010,9630C21436,9376 21789,9165 21793,9161C21797,9157 21694,9086 21563,9004C21432,8922 21080,8701 20780,8512L20235,8169L20228,8297C20212,8597 20198,9050 20190,9545C20185,9836 20178,10087 20174,10104L20168,10133L20201,10112C20220,10101 20584,9884 21010,9630ZM19964,10083C19967,10067 19974,9794 19980,9474C19985,9155 19992,8881 19995,8864C20002,8821 20021,8128 20015,8122C20013,8119 19975,8137 19933,8162C19796,8241 18499,8990 18388,9053C18329,9087 18282,9119 18283,9124C18286,9132 19939,10109 19952,10110C19955,10110 19961,10098 19964,10083ZM22580,8695C22863,8527 23173,8343 23267,8287C23362,8231 23440,8182 23440,8179C23440,8170 23447,8174 22315,7490C21776,7164 21101,6756 20815,6582C20529,6409 20290,6265 20283,6263C20273,6259 20270,6332 20270,6631C20270,6837 20263,7151 20255,7330C20240,7672 20234,7918 20241,7924C20245,7928 20358,7999 21440,8679C21740,8868 21989,9026 21994,9031C22000,9036 22016,9032 22034,9021C22051,9010 22297,8864 22580,8695ZM18388,8811C18568,8708 19005,8455 19360,8251C19715,8046 20011,7871 20018,7862C20026,7852 20030,7808 20030,7736C20030,7675 20037,7481 20045,7305C20058,7015 20066,6270 20056,6270C20053,6270 19983,6313 19898,6366C19814,6420 19669,6511 19575,6570C19482,6628 19169,6825 18880,7007C18591,7189 18020,7548 17610,7806C17200,8064 16863,8279 16860,8283C16856,8288 18035,8993 18058,8999C18060,9000 18208,8915 18388,8811ZM16536,7913C16532,7809 16507,6825 16480,5725C16452,4625 16423,3465 16415,3147C16407,2829 16400,2546 16400,2519C16400,2474 16398,2469 16383,2475C16373,2478 16025,2668 15610,2897C15195,3126 14704,3397 14520,3498C14336,3600 14030,3768 13840,3873C13650,3978 13236,4206 12920,4380C12604,4554 12188,4784 11995,4890C11803,4996 11619,5097 11588,5114C11556,5131 11532,5149 11533,5153C11537,5165 12771,5890 12788,5890C12805,5890 12952,5816 14087,5239C14538,5009 14919,4818 14933,4815C14976,4804 15029,4834 15049,4882C15067,4924 15067,4949 15029,6055C15000,6933 14994,7188 15003,7197C15010,7203 15269,7358 15580,7541C15891,7724 16231,7924 16335,7986C16440,8048 16529,8099 16534,8099C16538,8100 16539,8016 16536,7913ZM14819,6056C14836,5528 14849,5095 14847,5094C14845,5092 14675,5176 14469,5281C14263,5386 13979,5530 13836,5602L13578,5732L13584,5868C13587,5944 13593,6089 13596,6191L13602,6378L14189,6723C14771,7065 14775,7068 14782,7041C14786,7027 14803,6583 14819,6056ZM13379,6048C13375,5942 13372,5852 13371,5847C13371,5843 13289,5881 13189,5931C13089,5981 13012,6026 13016,6030C13032,6044 13365,6239 13375,6240C13382,6240 13383,6173 13379,6048Z" style="fill-rule:nonzero;"/>
            </g>
        </g>
        <g id="converted-78.svg1" serifId="converted 78.svg">
        </g>
    </g>
</svg>
