<?xml version="1.0" encoding="UTF-8" standalone="no"?>
<!DOCTYPE svg PUBLIC "-//W3C//DTD SVG 1.1//EN" "http://www.w3.org/Graphics/SVG/1.1/DTD/svg11.dtd">
<svg width="100%" height="100%" viewBox="0 0 3000 3000" version="1.1" xmlns="http://www.w3.org/2000/svg" xmlnsXlink="http://www.w3.org/1999/xlink" xmlSpace="preserve" xmlnsSerif="http://www.serif.com/" style="fill-rule:evenodd;clip-rule:evenodd;stroke-linejoin:round;stroke-miterlimit:2;">
    <g transform="matrix(0.95355,0,0,0.95355,1484.33,1499.44)">
        <g id="converted-8.svg" serifId="converted 8.svg" transform="matrix(1,0,0,1,-1500,-1500)">
            <g transform="matrix(0.1,0,0,-0.1,0,3000)">
                <path d="M13550,28610C12115,28605 12105,28605 12070,28584C12032,28562 12119,28713 10483,25840L9853,24735L7649,24730C5999,24726 5440,24722 5425,24713C5414,24707 5393,24689 5378,24673C5364,24658 5070,24186 4725,23625C4380,23064 4081,22578 4060,22545C4039,22512 3536,21695 2942,20729C1818,18900 1824,18910 1848,18843C1853,18827 2387,17933 3035,16855C3683,15777 4217,14886 4222,14875C4230,14858 4210,14818 4109,14650C3963,14404 3571,13747 3025,12830C2804,12459 2489,11930 2325,11655C1894,10932 1915,10970 1916,10930C1916,10902 2077,10629 2764,9490C4021,7408 4088,7297 4327,6900C4448,6699 4712,6261 4914,5925C5118,5586 5296,5301 5315,5283L5350,5250L5467,5250C5532,5250 6528,5270 7680,5295C8832,5320 9816,5340 9865,5340L9955,5340L9979,5297C10002,5257 10108,5078 10600,4250C10819,3881 11193,3251 11858,2130C12058,1792 12232,1505 12243,1493C12283,1448 12301,1447 12833,1459C13109,1465 14633,1497 16220,1530C17807,1562 19129,1591 19158,1593C19216,1597 19252,1623 19274,1675C19281,1692 19439,1989 19625,2335C19936,2915 20609,4173 21165,5210C21290,5444 21396,5639 21400,5644C21405,5649 22379,5667 23565,5686C25612,5717 25722,5719 25752,5737C25789,5759 25771,5728 26115,6350C26262,6617 26499,7044 26640,7300C27794,9386 28353,10395 28652,10937C28885,11358 29004,11582 29007,11608C29014,11657 29029,11627 28736,12118C28602,12342 28340,12782 28153,13095C27851,13601 27657,13926 26987,15050L26811,15345L26852,15420C26874,15461 26988,15666 27105,15875C27222,16084 27503,16588 27730,16995C27957,17402 28218,17870 28310,18035C28402,18200 28564,18490 28670,18680C28776,18870 28878,19053 28897,19087C28922,19132 28932,19162 28932,19194C28932,19236 28817,19429 27273,22001C26222,23752 25605,24771 25588,24784C25560,24804 25557,24804 23538,24772C22425,24754 21439,24739 21346,24737L21177,24735L20818,25345C20621,25681 20373,26104 20266,26285C20052,26649 19733,27192 19265,27990C18905,28603 18925,28571 18885,28599L18854,28620L16924,28618C15863,28616 14345,28613 13550,28610ZM18791,28383C18814,28344 19545,27098 20040,26255C20269,25865 20582,25331 20735,25070C20888,24809 21024,24583 21038,24568C21051,24554 21081,24537 21103,24531C21134,24524 21738,24530 23308,24556C24498,24576 25473,24590 25475,24588C25487,24576 28624,19341 28628,19328C28632,19312 28623,19310 28534,19310C28479,19310 27536,19285 26438,19255C25087,19219 24434,19197 24420,19190C24389,19173 24360,19120 24360,19079C24360,19043 24379,19010 25800,16630C26383,15652 26489,15474 26496,15457C26501,15442 26493,15440 26415,15440C26339,15440 22488,15345 20938,15305C20616,15297 20311,15290 20262,15290L20172,15290L20127,15363C20103,15402 19804,15899 19463,16465C19122,17032 18637,17837 18386,18255C18134,18673 17915,19029 17899,19045L17870,19075L16302,19081C15440,19084 14451,19088 14103,19089L13472,19090L13162,19588C12992,19861 12732,20279 12585,20515C12438,20752 12226,21091 12115,21270C12004,21449 11792,21789 11645,22025C11498,22262 11295,22588 11194,22750C11093,22912 10804,23376 10552,23780L10095,24515L10820,24521C11219,24524 12189,24528 12975,24529C14088,24530 14410,24533 14429,24543C14468,24563 14492,24604 14492,24649C14491,24685 14412,24825 13867,25753C12511,28060 12329,28371 12324,28385C12317,28401 12296,28401 17020,28408L18776,28410L18791,28383ZM12206,28167C12293,28018 12752,27235 12905,26975C12966,26871 13093,26655 13187,26495C13281,26336 13493,25973 13660,25690C13826,25407 14019,25079 14087,24962C14156,24845 14211,24748 14209,24746C14207,24744 13281,24740 12152,24738C10318,24733 10099,24734 10105,24748C10108,24756 10224,24961 10362,25204C10500,25447 10776,25931 10975,26280C11174,26629 11502,27205 11704,27560C12157,28355 12120,28290 12128,28290C12132,28289 12167,28234 12206,28167ZM9712,24488C9694,24457 9503,24122 8212,21855C7940,21377 7712,20979 7705,20972C7696,20962 7653,21027 7500,21292C7393,21475 7220,21774 7115,21955C7009,22137 6826,22452 6708,22655C6218,23498 6081,23734 5863,24110L5633,24505L5939,24510C6107,24513 7029,24516 7988,24518L9732,24520L9712,24488ZM10314,23765C10530,23418 10897,22829 11130,22455C11363,22081 11627,21656 11718,21510C11809,21364 12032,21007 12213,20715C12395,20424 12605,20086 12680,19965C12755,19844 12915,19588 13034,19396C13154,19204 13254,19041 13257,19034C13259,19027 13108,18745 12919,18408C12731,18071 12374,17433 12127,16990C11201,15332 11097,15144 11083,15111C11075,15092 11071,15066 11075,15052C11078,15038 11196,14837 11337,14606C11478,14374 11978,13553 12447,12781C12917,12009 13304,11371 13307,11364C13309,11357 13233,11217 13137,11053C13042,10889 12581,10103 12115,9305C11648,8508 10981,7369 10634,6775C10286,6181 9998,5696 9993,5696C9989,5697 9888,5861 9769,6061C9361,6749 8496,8206 8168,8760C7987,9065 7830,9323 7818,9333C7770,9374 7717,9367 7660,9312C7636,9289 7389,8889 7000,8245C6657,7679 6320,7121 6250,7005C6180,6890 5973,6548 5790,6245C5382,5570 5388,5580 5380,5575C5377,5573 5342,5624 5304,5688C5265,5752 5148,5947 5043,6120C4939,6293 4687,6710 4485,7045C4283,7381 3934,7959 3710,8330C3486,8701 3223,9138 3125,9300C2445,10426 2147,10925 2147,10934C2147,10940 2261,11137 2400,11370C2539,11604 2779,12007 2933,12265C3519,13249 3860,13821 4262,14495C4364,14666 4451,14820 4454,14837C4459,14856 4456,14881 4447,14901C4435,14930 3812,15970 2411,18302L2058,18889L3225,20787C3867,21830 4628,23068 4917,23537C5206,24006 5445,24390 5450,24390C5454,24390 5599,24146 5772,23848C5946,23549 6298,22943 6555,22500C6812,22057 7153,21470 7313,21195C7472,20920 7614,20683 7628,20668C7649,20646 7663,20640 7698,20640C7758,20640 7782,20667 7897,20875C7950,20969 8140,21304 8320,21620C8500,21936 8822,22501 9035,22875C9248,23249 9531,23745 9663,23978C9796,24210 9908,24399 9913,24397C9918,24396 10099,24111 10314,23765ZM28660,19096C28660,19094 28577,18944 28476,18764C28311,18467 27734,17433 27013,16140C26867,15879 26734,15641 26718,15612C26701,15582 26684,15562 26680,15567C26673,15574 26565,15755 25737,17145C25567,17431 25409,17697 25385,17735C25362,17774 25209,18030 25045,18305C24881,18580 24723,18845 24693,18894C24664,18943 24640,18987 24640,18992C24640,18996 24697,19000 24768,19001C24838,19001 25665,19023 26605,19049C28232,19095 28660,19105 28660,19096ZM16603,18870C17598,18870 17652,18869 17647,18853C17642,18833 15613,15219 15602,15209C15598,15205 14868,15197 13980,15191C13092,15185 12138,15177 11861,15174C11369,15167 11357,15168 11364,15186C11368,15196 11590,15597 11857,16075C12462,17159 13109,18318 13289,18639L13425,18883L14489,18877C15074,18873 16026,18870 16603,18870ZM18408,17812C18718,17297 19196,16502 19471,16045C19746,15589 19976,15206 19981,15194C19990,15177 19978,15151 19912,15039C19814,14873 19756,14774 18736,13032C18280,12256 17905,11620 17901,11620C17898,11621 17423,12408 16846,13371C15802,15113 15797,15121 15812,15148C15821,15163 16065,15598 16355,16115C16646,16632 16981,17228 17099,17440C17218,17652 17433,18033 17575,18287C17718,18542 17837,18750 17840,18750C17843,18749 18098,18327 18408,17812ZM26500,15226C26500,15223 26491,15206 26481,15188C26471,15170 26300,14865 26102,14510C25119,12748 24906,12366 24710,12015C24581,11785 24496,11621 24494,11600C24488,11556 24506,11521 24547,11497C24579,11479 24618,11479 26651,11500C27790,11512 28724,11520 28726,11517C28730,11513 28528,11144 27755,9750C27644,9549 27457,9212 27340,9000C27078,8526 26793,8011 26223,6980C25981,6543 25752,6130 25715,6062C25678,5995 25643,5937 25638,5934C25633,5931 24659,5913 23473,5895L21318,5862L21282,5833C21246,5804 21082,5503 19788,3085C19726,2970 19547,2634 19389,2340L19102,1805L19033,1802C18917,1796 12515,1663 12512,1666C12510,1667 12618,1866 12753,2107C12887,2348 13184,2880 13412,3290C13641,3700 14004,4352 14221,4740C14437,5128 14625,5466 14638,5493C14661,5537 14662,5543 14649,5577C14641,5597 14623,5622 14609,5633C14582,5652 14576,5652 12380,5606C11169,5580 10176,5561 10174,5563C10171,5565 10206,5630 10251,5706C10362,5895 10991,6969 11325,7540C11475,7796 11635,8070 11682,8150C11821,8388 12312,9226 12475,9505C12794,10052 13493,11245 13495,11248C13496,11249 14488,11259 15699,11269L17901,11289L17942,11312C17989,11337 17905,11199 19060,13170C19848,14516 20155,15036 20170,15057C20185,15077 20230,15078 22725,15140C24122,15174 25470,15208 25720,15215C26226,15228 26500,15232 26500,15226ZM26912,14765C27030,14567 27351,14029 27625,13570C27899,13111 28257,12510 28421,12235L28720,11735L28622,11732C28378,11726 24785,11692 24781,11696C24778,11698 24786,11717 24797,11738C24809,11758 25100,12281 25445,12900C25790,13519 26203,14259 26363,14545C26668,15093 26691,15133 26695,15128C26696,15126 26794,14963 26912,14765ZM16677,13246C17251,12290 17719,11505 17716,11503C17713,11500 16765,11490 15608,11479C13968,11465 13502,11464 13493,11473C13487,11480 13401,11618 13302,11780C13203,11942 12869,12491 12560,13000C12065,13813 11870,14134 11468,14795L11371,14955L11453,14958C11613,14964 14624,14987 15124,14986L15634,14985L16677,13246ZM7887,8820C7964,8691 8105,8452 8202,8290C8298,8128 8463,7851 8567,7675C8671,7499 8965,7004 9220,6575C9847,5519 9823,5560 9819,5555C9817,5553 8949,5533 7890,5511C6831,5489 5876,5468 5768,5464C5643,5460 5570,5462 5570,5468C5570,5473 5643,5598 5733,5746C5823,5894 5977,6148 6075,6310C6173,6472 6453,6936 6698,7340C6943,7744 7271,8287 7427,8545C7751,9080 7740,9063 7745,9058C7747,9057 7811,8949 7887,8820ZM14360,5432C14360,5424 14315,5343 13673,4190C13469,3824 13137,3228 12935,2865C12733,2502 12513,2107 12446,1988C12380,1868 12323,1770 12320,1770C12317,1770 12272,1843 12219,1933C12167,2022 11879,2507 11580,3010C11281,3513 11009,3972 10975,4030C10941,4088 10777,4365 10610,4645C10209,5319 10197,5340 10201,5345C10204,5347 11121,5369 12240,5393C13359,5417 14294,5438 14318,5439C14341,5439 14360,5436 14360,5432Z" style="fill-rule:nonzero;"/>
            </g>
        </g>
        <g id="converted-8.svg1" serifId="converted 8.svg">
        </g>
    </g>
</svg>
